<svg width="44" height="49" viewBox="0 0 44 49" fill="none" xmlns="http://www.w3.org/2000/svg">
<path d="M5.75297 45.7592C4.3887 46.3595 3.70657 46.6596 3.28797 46.5278C2.9251 46.4135 2.64073 46.1295 2.52603 45.7667C2.39372 45.3483 2.69305 44.6658 3.29172 43.3008L20.2816 4.56395C20.822 3.33178 21.0922 2.71569 21.47 2.52712C21.7981 2.36336 22.184 2.36336 22.5121 2.52712C22.8899 2.71569 23.1601 3.33178 23.7005 4.56396L40.6904 43.3008C41.289 44.6658 41.5884 45.3483 41.4561 45.7667C41.3414 46.1295 41.057 46.4135 40.6941 46.5278C40.2755 46.6596 39.5934 46.3595 38.2291 45.7592L22.7428 38.9452C22.4659 38.8234 22.3274 38.7624 22.1836 38.7384C22.0561 38.717 21.926 38.717 21.7985 38.7384C21.6547 38.7624 21.5162 38.8234 21.2393 38.9452L5.75297 45.7592Z" stroke="#046DFF" stroke-width="4.66667" stroke-linecap="round" stroke-linejoin="round"/>
</svg>
