<svg width="33" height="33" viewBox="0 0 33 33" fill="none" xmlns="http://www.w3.org/2000/svg">
<g clip-path="url(#clip0_7_400)">
<path d="M28.2708 5.34536C27.8868 5.12832 27.4305 5.17284 26.8934 5.48171L23.276 7.57145L22.0239 8.29496V4.94189C22.0239 4.32693 21.8319 3.90954 21.4507 3.69249C21.0695 3.47545 20.6103 3.51997 20.0732 3.82884L18.1254 4.95583C17.5912 5.2647 17.1321 5.74884 16.7508 6.40554C16.3696 7.06502 16.1776 7.70221 16.1776 8.31438V11.6702L11.3052 14.4807C11.0186 14.6477 10.7515 14.8646 10.5066 15.1346C10.2979 15.3627 10.106 15.6299 9.93067 15.9332C9.54945 16.5899 9.35742 17.2271 9.35742 17.842V30.1384C9.35742 30.7533 9.54945 31.1707 9.93067 31.3878C10.3119 31.6048 10.771 31.5603 11.3052 31.2486L26.8934 22.2497C27.4305 21.9408 27.8868 21.4567 28.2708 20.8C28.6521 20.1405 28.8412 19.506 28.8412 18.8911V6.59197C28.8412 5.9798 28.6521 5.56241 28.2708 5.34536ZM17.8499 20.4466C17.6607 20.7666 17.4298 21.0087 17.1543 21.1673L16.1804 21.7293V22.8479C16.1804 23.1652 16.0858 23.4852 15.8993 23.8052C15.7129 24.128 15.4819 24.37 15.2065 24.5286C14.931 24.6873 14.7 24.7151 14.5108 24.6066C14.3244 24.5008 14.2326 24.2893 14.2326 23.9721V22.8563L13.2586 23.4184C12.9804 23.577 12.7494 23.6048 12.563 23.4963C12.3766 23.3906 12.2847 23.1791 12.2847 22.8619C12.2847 22.5753 12.3599 22.2887 12.5129 21.9965C12.5268 21.9659 12.5463 21.9353 12.563 21.9047C12.7494 21.5819 12.9804 21.3426 13.2586 21.1812L14.1074 20.6914L14.2326 20.6191V19.5005C14.2326 19.2167 14.3077 18.9273 14.4608 18.6351C14.4747 18.6045 14.4941 18.5739 14.5108 18.5432C14.6221 18.354 14.7446 18.1955 14.8837 18.0647C14.9839 17.9701 15.0924 17.8894 15.2065 17.8226C15.3985 17.7113 15.5682 17.664 15.7157 17.6807C15.7797 17.689 15.8409 17.7113 15.8966 17.7419C16.083 17.8476 16.1776 18.0591 16.1776 18.3763V19.495L17.1515 18.9329C17.427 18.7715 17.6579 18.7464 17.8472 18.8521C18.0336 18.9579 18.1254 19.1722 18.1254 19.4866C18.1254 19.801 18.0336 20.1238 17.8472 20.4466H17.8499ZM18.1282 12.7805V7.19021L20.076 6.06609V11.6563L20.0621 11.6646L18.1282 12.7805ZM23.7658 18.791C23.6294 19.0275 23.4541 19.2083 23.2426 19.3308L20.8079 20.736C20.5964 20.8584 20.4211 20.8779 20.2847 20.8C20.1456 20.7221 20.076 20.5607 20.076 20.3186C20.076 20.2741 20.0788 20.2323 20.0844 20.1878C20.1039 19.9903 20.1706 19.7955 20.2847 19.5979C20.4211 19.3614 20.5964 19.1805 20.8079 19.0581L22.7529 17.9367L23.2426 17.6528C23.4541 17.5304 23.6294 17.5081 23.7658 17.5888C23.9049 17.6668 23.9745 17.8281 23.9745 18.0702C23.9745 18.3123 23.9049 18.5517 23.7658 18.791ZM25.7164 14.3109C25.5772 14.5502 25.4019 14.7283 25.1905 14.8507L23.2788 15.9554L20.8079 17.3829C20.5964 17.5026 20.4211 17.5248 20.2847 17.4469C20.1456 17.369 20.076 17.2076 20.076 16.9655C20.076 16.7235 20.1456 16.4841 20.2847 16.2448C20.4211 16.0055 20.5964 15.8275 20.8079 15.705L23.2788 14.2776L25.1905 13.1728C25.4019 13.0532 25.5772 13.0309 25.7164 13.1088C25.8527 13.1867 25.9223 13.3481 25.9223 13.5902C25.9223 13.8323 25.8527 14.0716 25.7164 14.3109Z" fill="#78F7A5" stroke="#0BBF4A" stroke-width="0.278261" stroke-linecap="round" stroke-linejoin="round"/>
<path d="M25.9224 13.59C25.9224 13.8321 25.8529 14.0714 25.7165 14.3107C25.5774 14.55 25.4021 14.7281 25.1906 14.8505L23.279 15.9552L20.808 17.3827C20.5965 17.5024 20.4212 17.5246 20.2849 17.4467C20.1457 17.3688 20.0762 17.2074 20.0762 16.9653C20.0762 16.7232 20.1457 16.4839 20.2849 16.2446C20.4212 16.0053 20.5965 15.8272 20.808 15.7048L23.279 14.2774L25.1906 13.1726C25.4021 13.053 25.5774 13.0307 25.7165 13.1086C25.8529 13.1865 25.9224 13.3479 25.9224 13.59Z" fill="#78F7A5" stroke="#0BBF4A" stroke-width="0.278261" stroke-linecap="round" stroke-linejoin="round"/>
<path d="M23.9746 18.07C23.9746 18.3121 23.905 18.5514 23.7659 18.7907C23.6296 19.0273 23.4543 19.2081 23.2428 19.3305L20.808 20.7358C20.5965 20.8582 20.4212 20.8777 20.2849 20.7998C20.1457 20.7219 20.0762 20.5605 20.0762 20.3184C20.0762 20.2739 20.079 20.2321 20.0845 20.1876C20.104 19.99 20.1708 19.7952 20.2849 19.5977C20.4212 19.3611 20.5965 19.1803 20.808 19.0579L22.753 17.9364L23.2428 17.6526C23.4543 17.5302 23.6296 17.5079 23.7659 17.5886C23.905 17.6665 23.9746 17.8279 23.9746 18.07Z" fill="#78F7A5" stroke="#0BBF4A" stroke-width="0.278261" stroke-linecap="round" stroke-linejoin="round"/>
<path d="M16.1806 18.3762V19.4948L14.4609 18.6349C14.4749 18.6043 14.4943 18.5737 14.511 18.5431C14.6223 18.3538 14.7447 18.1953 14.8839 18.0645C14.984 17.9699 15.0926 17.8892 15.2066 17.8224C15.3986 17.7111 15.5684 17.6638 15.7159 17.6805C15.7799 17.6889 15.8411 17.7111 15.8967 17.7417C16.0832 17.8475 16.1778 18.0589 16.1778 18.3762H16.1806Z" fill="#78F7A5" stroke="#0BBF4A" stroke-width="0.278261" stroke-linecap="round" stroke-linejoin="round"/>
<path d="M20.0758 11.656L20.0591 11.6643L18.1279 12.7801V10.7544L20.0674 11.6532L20.0758 11.656Z" fill="#78F7A5" stroke="#0BBF4A" stroke-width="0.278261" stroke-linecap="round" stroke-linejoin="round"/>
<path d="M14.232 22.8564L13.2581 23.4184C12.9798 23.577 12.7489 23.6049 12.5624 23.4964C12.376 23.3906 12.2842 23.1791 12.2842 22.8619C12.2842 22.5753 12.3593 22.2888 12.5124 21.9966L14.232 22.8564Z" fill="#78F7A5" stroke="#0BBF4A" stroke-width="0.278261" stroke-linecap="round" stroke-linejoin="round"/>
<path d="M16.1801 21.7288V22.8474C16.1801 23.1647 16.0855 23.4847 15.8991 23.8047C15.7127 24.1275 15.4817 24.3696 15.2062 24.5282C14.9308 24.6868 14.6998 24.7146 14.5106 24.6061C14.3241 24.5003 14.2323 24.2889 14.2323 23.9716V22.8558L12.5127 21.996C12.5266 21.9654 12.5461 21.9348 12.5628 21.9042C12.7492 21.5814 12.9801 21.3421 13.2584 21.1807L14.1071 20.6909L16.1801 21.7288Z" fill="#78F7A5" stroke="#0BBF4A" stroke-width="0.278261" stroke-linecap="round" stroke-linejoin="round"/>
<path d="M18.1283 19.4868C18.1283 19.804 18.0364 20.124 17.85 20.4467C17.6608 20.7667 17.4298 21.0088 17.1544 21.1675L16.1804 21.7295L14.1074 20.6916L14.2326 20.6192V19.5007C14.2326 19.2168 14.3078 18.9274 14.4608 18.6353L16.1804 19.4951L17.1544 18.933C17.4298 18.7716 17.6608 18.7466 17.85 18.8523C18.0364 18.958 18.1283 19.1723 18.1283 19.4868Z" fill="#78F7A5" stroke="#0BBF4A" stroke-width="0.278261" stroke-linecap="round" stroke-linejoin="round"/>
<path d="M28.2709 5.34522C27.8869 5.12818 27.4305 5.1727 26.8935 5.48157L23.2761 7.57131L22.0239 8.29482V4.94175C22.0239 4.32679 21.832 3.9094 21.4507 3.69235L20.4629 3.19983L21.3283 2.69896C21.8653 2.39009 22.3217 2.34557 22.7057 2.56261L28.2709 5.34522Z" fill="#78F7A5" stroke="#0BBF4A" stroke-width="0.278261" stroke-linecap="round" stroke-linejoin="round"/>
<path d="M21.4506 3.69239C21.0694 3.47535 20.6102 3.51987 20.0732 3.82874L18.1253 4.95569C17.5911 5.26456 17.132 5.74874 16.7508 6.40543C16.3696 7.06491 16.1775 7.7021 16.1775 8.31427V11.6701L12.6854 9.9254L12.5601 9.8614L10.6123 8.88749V5.53167C10.6123 4.91949 10.8043 4.2823 11.1856 3.62282C11.5668 2.96613 12.0259 2.48197 12.5601 2.1731L14.508 1.04613C15.045 0.737256 15.5042 0.692737 15.8854 0.90978L20.4627 3.19987L21.4506 3.69239Z" fill="#78F7A5" stroke="#0BBF4A" stroke-width="0.278261" stroke-linecap="round" stroke-linejoin="round"/>
<path d="M16.1803 11.6698L11.308 14.4803C11.0214 14.6472 10.7542 14.8643 10.5094 15.1342C10.3007 15.3623 10.1087 15.6295 9.93338 15.9328C9.55216 16.5895 9.36014 17.2267 9.36014 17.8416V30.1381C9.36014 30.753 9.55216 31.1704 9.93338 31.3875L4.36816 28.6049C3.98694 28.3878 3.79492 27.9704 3.79492 27.3554V15.059C3.79492 14.4441 3.98694 13.8069 4.36816 13.1502C4.74937 12.4907 5.20849 12.0093 5.74275 11.6977L10.6151 8.88721L12.5629 9.86112L12.6882 9.92512L16.1803 11.6698Z" fill="#78F7A5" stroke="#0BBF4A" stroke-width="0.278261" stroke-linecap="round" stroke-linejoin="round"/>
<path d="M20.0758 6.06592V11.6561L20.0674 11.6533L18.1279 10.7546V7.19004L20.0758 6.06592Z" fill="#78F7A5" stroke="#0BBF4A" stroke-width="0.278261" stroke-linecap="round" stroke-linejoin="round"/>
</g>
<defs>
<clipPath id="clip0_7_400">
<rect width="32" height="32" fill="white" transform="translate(0.400391 0.200195)"/>
</clipPath>
</defs>
</svg>
