<svg width="72" height="77" viewBox="0 0 72 77" fill="none" xmlns="http://www.w3.org/2000/svg">
<g filter="url(#filter0_d_7_289)">
<path d="M37.7729 64.4489C36.948 65.7478 35.0524 65.7478 34.2275 64.4489L27.1632 53.3256C26.2753 51.9275 27.2797 50.0998 28.936 50.0998H43.0644C44.7207 50.0998 45.7251 51.9275 44.8371 53.3256L37.7729 64.4489Z" fill="white" stroke="#0BBF4A" stroke-width="0.6"/>
<circle cx="36" cy="33" r="25.5" fill="white" stroke="#0BBF4A" stroke-width="3"/>
<path d="M47.8705 22.1452C47.4865 21.9281 47.0301 21.9726 46.493 22.2815L42.8756 24.3713L41.6235 25.0948V21.7417C41.6235 21.1267 41.4315 20.7093 41.0503 20.4923C40.6691 20.2753 40.2099 20.3198 39.6729 20.6286L37.725 21.7556C37.1908 22.0645 36.7317 22.5486 36.3505 23.2053C35.9692 23.8648 35.7772 24.502 35.7772 25.1142V28.47L30.9049 31.2805C30.6182 31.4475 30.3511 31.6644 30.1062 31.9344C29.8976 32.1625 29.7056 32.4297 29.5303 32.733C29.1491 33.3897 28.957 34.0269 28.957 34.6418V46.9382C28.957 47.5531 29.1491 47.9705 29.5303 48.1876C29.9115 48.4046 30.3706 48.3601 30.9049 48.0484L46.493 39.0495C47.0301 38.7406 47.4865 38.2565 47.8705 37.5998C48.2517 36.9403 48.4409 36.3058 48.4409 35.6909V23.3918C48.4409 22.7796 48.2517 22.3622 47.8705 22.1452ZM37.4496 37.2464C37.2603 37.5664 37.0294 37.8085 36.7539 37.9671L35.78 38.5291V39.6478C35.78 39.965 35.6854 40.285 35.4989 40.605C35.3125 40.9278 35.0816 41.1698 34.8061 41.3284C34.5306 41.4871 34.2996 41.5149 34.1104 41.4064C33.924 41.3006 33.8322 41.0891 33.8322 40.7719V39.6561L32.8582 40.2182C32.58 40.3768 32.349 40.4046 32.1626 40.2961C31.9762 40.1904 31.8843 39.9789 31.8843 39.6617C31.8843 39.3751 31.9595 39.0885 32.1125 38.7963C32.1265 38.7657 32.1459 38.7351 32.1626 38.7045C32.349 38.3817 32.58 38.1424 32.8582 37.981L33.707 37.4912L33.8322 37.4189V36.3003C33.8322 36.0165 33.9073 35.7271 34.0604 35.4349C34.0743 35.4043 34.0937 35.3737 34.1104 35.3431C34.2217 35.1538 34.3442 34.9953 34.4833 34.8645C34.5835 34.7699 34.692 34.6892 34.8061 34.6224C34.9981 34.5111 35.1678 34.4638 35.3153 34.4805C35.3793 34.4888 35.4405 34.5111 35.4962 34.5417C35.6826 34.6474 35.7772 34.8589 35.7772 35.1762V36.2948L36.7511 35.7327C37.0266 35.5713 37.2576 35.5462 37.4468 35.652C37.6332 35.7577 37.725 35.972 37.725 36.2864C37.725 36.6008 37.6332 36.9236 37.4468 37.2464H37.4496ZM37.7278 29.5803V23.99L39.6756 22.8659V28.4561L39.6618 28.4644L37.7278 29.5803ZM43.3654 35.5908C43.229 35.8273 43.0537 36.0081 42.8422 36.1306L40.4075 37.5358C40.196 37.6582 40.0207 37.6777 39.8843 37.5998C39.7452 37.5219 39.6756 37.3605 39.6756 37.1184C39.6756 37.0739 39.6784 37.0322 39.684 36.9876C39.7035 36.7901 39.7703 36.5953 39.8843 36.3977C40.0207 36.1612 40.196 35.9803 40.4075 35.8579L42.3525 34.7365L42.8422 34.4526C43.0537 34.3302 43.229 34.308 43.3654 34.3886C43.5045 34.4666 43.5741 34.628 43.5741 34.87C43.5741 35.1121 43.5045 35.3515 43.3654 35.5908ZM45.316 31.1107C45.1769 31.35 45.0016 31.5281 44.7901 31.6505L42.8784 32.7552L40.4075 34.1827C40.196 34.3024 40.0207 34.3246 39.8843 34.2467C39.7452 34.1688 39.6756 34.0074 39.6756 33.7653C39.6756 33.5233 39.7452 33.2839 39.8843 33.0446C40.0207 32.8053 40.196 32.6273 40.4075 32.5048L42.8784 31.0774L44.7901 29.9726C45.0016 29.853 45.1769 29.8307 45.316 29.9086C45.4523 29.9865 45.5219 30.1479 45.5219 30.39C45.5219 30.6321 45.4523 30.8714 45.316 31.1107Z" fill="#78F7A5" stroke="#0BBF4A" stroke-width="0.278261" stroke-linecap="round" stroke-linejoin="round"/>
<path d="M45.522 30.3898C45.522 30.6319 45.4525 30.8712 45.3161 31.1105C45.177 31.3498 45.0017 31.5279 44.7902 31.6503L42.8786 32.755L40.4076 34.1825C40.1961 34.3022 40.0208 34.3244 39.8845 34.2465C39.7453 34.1686 39.6758 34.0072 39.6758 33.7651C39.6758 33.523 39.7453 33.2837 39.8845 33.0444C40.0208 32.8051 40.1961 32.627 40.4076 32.5046L42.8786 31.0772L44.7902 29.9724C45.0017 29.8528 45.177 29.8305 45.3161 29.9084C45.4525 29.9863 45.522 30.1477 45.522 30.3898Z" fill="#78F7A5" stroke="#0BBF4A" stroke-width="0.278261" stroke-linecap="round" stroke-linejoin="round"/>
<path d="M43.5742 34.8698C43.5742 35.1119 43.5047 35.3512 43.3655 35.5905C43.2292 35.8271 43.0539 36.0079 42.8424 36.1303L40.4076 37.5356C40.1961 37.658 40.0208 37.6775 39.8845 37.5996C39.7453 37.5217 39.6758 37.3603 39.6758 37.1182C39.6758 37.0737 39.6786 37.0319 39.6841 36.9874C39.7036 36.7898 39.7704 36.595 39.8845 36.3975C40.0208 36.1609 40.1961 35.9801 40.4076 35.8577L42.3526 34.7363L42.8424 34.4524C43.0539 34.33 43.2292 34.3077 43.3655 34.3884C43.5047 34.4663 43.5742 34.6277 43.5742 34.8698Z" fill="#78F7A5" stroke="#0BBF4A" stroke-width="0.278261" stroke-linecap="round" stroke-linejoin="round"/>
<path d="M35.7802 35.176V36.2946L34.0605 35.4347C34.0745 35.4041 34.0939 35.3735 34.1106 35.3429C34.2219 35.1537 34.3443 34.9951 34.4835 34.8643C34.5836 34.7697 34.6922 34.689 34.8063 34.6222C34.9983 34.5109 35.168 34.4636 35.3155 34.4803C35.3795 34.4887 35.4407 34.5109 35.4963 34.5415C35.6828 34.6473 35.7774 34.8588 35.7774 35.176H35.7802Z" fill="#78F7A5" stroke="#0BBF4A" stroke-width="0.278261" stroke-linecap="round" stroke-linejoin="round"/>
<path d="M39.6754 28.4558L39.6587 28.4641L37.7275 29.5799V27.5542L39.667 28.453L39.6754 28.4558Z" fill="#78F7A5" stroke="#0BBF4A" stroke-width="0.278261" stroke-linecap="round" stroke-linejoin="round"/>
<path d="M33.8316 39.6562L32.8577 40.2182C32.5794 40.3769 32.3485 40.4047 32.162 40.2962C31.9756 40.1904 31.8838 39.9789 31.8838 39.6617C31.8838 39.3751 31.9589 39.0886 32.112 38.7964L33.8316 39.6562Z" fill="#78F7A5" stroke="#0BBF4A" stroke-width="0.278261" stroke-linecap="round" stroke-linejoin="round"/>
<path d="M35.7798 38.5286V39.6472C35.7798 39.9645 35.6851 40.2845 35.4987 40.6045C35.3123 40.9273 35.0813 41.1694 34.8058 41.328C34.5304 41.4866 34.2994 41.5144 34.1102 41.4059C33.9238 41.3001 33.8319 41.0887 33.8319 40.7714V39.6556L32.1123 38.7958C32.1262 38.7652 32.1457 38.7346 32.1624 38.704C32.3488 38.3812 32.5798 38.1419 32.858 37.9805L33.7067 37.4907L35.7798 38.5286Z" fill="#78F7A5" stroke="#0BBF4A" stroke-width="0.278261" stroke-linecap="round" stroke-linejoin="round"/>
<path d="M37.7279 36.2866C37.7279 36.6038 37.636 36.9238 37.4496 37.2465C37.2604 37.5665 37.0294 37.8087 36.754 37.9673L35.78 38.5293L33.707 37.4914L33.8322 37.419V36.3005C33.8322 36.0167 33.9074 35.7272 34.0604 35.4351L35.78 36.2949L36.754 35.7328C37.0294 35.5714 37.2604 35.5464 37.4496 35.6521C37.636 35.7578 37.7279 35.9721 37.7279 36.2866Z" fill="#78F7A5" stroke="#0BBF4A" stroke-width="0.278261" stroke-linecap="round" stroke-linejoin="round"/>
<path d="M47.8705 22.145C47.4865 21.928 47.0302 21.9725 46.4931 22.2814L42.8757 24.3711L41.6235 25.0946V21.7416C41.6235 21.1266 41.4316 20.7092 41.0504 20.4922L40.0625 19.9996L40.9279 19.4988C41.4649 19.1899 41.9213 19.1454 42.3053 19.3624L47.8705 22.145Z" fill="#78F7A5" stroke="#0BBF4A" stroke-width="0.278261" stroke-linecap="round" stroke-linejoin="round"/>
<path d="M41.0502 20.4922C40.669 20.2752 40.2098 20.3197 39.6728 20.6285L37.725 21.7555C37.1907 22.0644 36.7316 22.5485 36.3504 23.2052C35.9692 23.8647 35.7771 24.5019 35.7771 25.1141V28.4699L32.285 26.7252L32.1597 26.6612L30.2119 25.6873V22.3315C30.2119 21.7193 30.4039 21.0821 30.7852 20.4226C31.1664 19.7659 31.6255 19.2818 32.1597 18.9729L34.1076 17.8459C34.6446 17.5371 35.1038 17.4925 35.485 17.7096L40.0624 19.9997L41.0502 20.4922Z" fill="#78F7A5" stroke="#0BBF4A" stroke-width="0.278261" stroke-linecap="round" stroke-linejoin="round"/>
<path d="M35.7799 28.4696L30.9076 31.2801C30.621 31.447 30.3538 31.6641 30.109 31.934C29.9003 32.1621 29.7083 32.4293 29.533 32.7326C29.1518 33.3893 28.9597 34.0265 28.9597 34.6414V46.9379C28.9597 47.5528 29.1518 47.9702 29.533 48.1873L23.9678 45.4047C23.5865 45.1876 23.3945 44.7702 23.3945 44.1552V31.8588C23.3945 31.2439 23.5865 30.6067 23.9678 29.95C24.349 29.2905 24.8081 28.8091 25.3424 28.4975L30.2147 25.687L32.1625 26.6609L32.2878 26.7249L35.7799 28.4696Z" fill="#78F7A5" stroke="#0BBF4A" stroke-width="0.278261" stroke-linecap="round" stroke-linejoin="round"/>
<path d="M39.6754 22.8657V28.4559L39.667 28.4531L37.7275 27.5544V23.9898L39.6754 22.8657Z" fill="#78F7A5" stroke="#0BBF4A" stroke-width="0.278261" stroke-linecap="round" stroke-linejoin="round"/>
</g>
<defs>
<filter id="filter0_d_7_289" x="0.599999" y="-4.76837e-07" width="70.8" height="79.8" filterUnits="userSpaceOnUse" color-interpolation-filters="sRGB">
<feFlood flood-opacity="0" result="BackgroundImageFix"/>
<feColorMatrix in="SourceAlpha" type="matrix" values="0 0 0 0 0 0 0 0 0 0 0 0 0 0 0 0 0 0 127 0" result="hardAlpha"/>
<feOffset dy="2.4"/>
<feGaussianBlur stdDeviation="4.2"/>
<feComposite in2="hardAlpha" operator="out"/>
<feColorMatrix type="matrix" values="0 0 0 0 0 0 0 0 0 0 0 0 0 0 0 0 0 0 0.17 0"/>
<feBlend mode="normal" in2="BackgroundImageFix" result="effect1_dropShadow_7_289"/>
<feBlend mode="normal" in="SourceGraphic" in2="effect1_dropShadow_7_289" result="shape"/>
</filter>
</defs>
</svg>
