<svg width="72" height="77" viewBox="0 0 72 77" fill="none" xmlns="http://www.w3.org/2000/svg">
<g filter="url(#filter0_d_7_152)">
<path d="M37.7729 64.4489C36.948 65.7478 35.0524 65.7478 34.2275 64.4489L27.1632 53.3256C26.2753 51.9275 27.2797 50.0998 28.936 50.0998H43.0644C44.7207 50.0998 45.7251 51.9275 44.8371 53.3256L37.7729 64.4489Z" fill="white" stroke="#BF0B0B" stroke-width="0.6"/>
<circle cx="36" cy="33" r="25.5" fill="white" stroke="#BF0B0B" stroke-width="3"/>
<g clip-path="url(#clip0_7_152)">
<path d="M47.1004 19.7703C47.0147 19.6846 46.921 19.6123 46.8192 19.5561H46.8112C46.5783 19.4302 46.3078 19.39 45.9998 19.4275L42.1708 19.9898L38.9549 20.4638C38.6818 20.5093 38.4087 20.6137 38.1329 20.7717C37.8597 20.9297 37.5866 21.1439 37.3135 21.4144L33.961 24.7909L31.0182 27.7578L30.2684 28.5129C29.8159 28.9735 29.4491 29.5117 29.1653 30.1249C29.0234 30.4275 28.9189 30.7247 28.8493 31.0165C28.777 31.3138 28.7422 31.603 28.7422 31.8868V38.2516C28.7422 41.09 29.3795 43.3902 30.6594 45.1521C30.7906 45.3422 30.9352 45.527 31.0878 45.7037C31.61 46.3142 32.1937 46.7935 32.839 47.1416L32.9971 47.2193C34.2422 47.8486 35.7149 47.9985 37.3992 47.6692C37.517 47.6477 37.6348 47.6129 37.7526 47.5674C37.8704 47.5219 37.9963 47.4603 38.1329 47.38C38.2721 47.3023 38.3979 47.2166 38.5157 47.1256C38.6336 47.0372 38.7514 46.9355 38.8692 46.823C41.5094 44.2872 43.6141 41.2025 45.1778 37.5688C46.7443 33.9379 47.5262 30.5506 47.5262 27.407V21.0395C47.5262 20.4799 47.3843 20.0541 47.1004 19.7703ZM42.8295 31.3298C42.8295 31.7127 42.7171 32.0983 42.4921 32.4839C42.2672 32.8722 41.9887 33.164 41.6567 33.3568L40.0876 34.2619L39.8948 34.3717V36.3933C39.8948 36.7762 39.7823 37.1592 39.5574 37.5474C39.3325 37.9357 39.054 38.2276 38.7219 38.4177L37.6562 39.0335L37.5464 39.0978C37.2144 39.2879 36.9359 39.32 36.711 39.1915C36.4861 39.063 36.3736 38.8086 36.3736 38.4284V36.4067L34.6117 37.4216C34.2797 37.6144 34.0012 37.6465 33.7762 37.518C33.5513 37.3894 33.4362 37.1351 33.4362 36.7521V35.4053C33.4362 35.258 33.4522 35.1134 33.487 34.9635C33.5406 34.7278 33.637 34.4895 33.7762 34.2512C33.9851 33.8924 34.2395 33.6166 34.5394 33.4265C34.5635 33.4104 34.5876 33.3943 34.6117 33.3809L36.1433 32.4973L36.3736 32.3634V30.3418C36.3736 29.9615 36.4861 29.5759 36.711 29.1877C36.7806 29.0672 36.8556 28.9547 36.9386 28.853C37.0966 28.6521 37.276 28.4888 37.4741 28.363C37.4982 28.3469 37.5223 28.3308 37.5464 28.3174L38.7219 27.64C39.054 27.4472 39.3325 27.4151 39.5574 27.5436C39.7823 27.6721 39.8948 27.9265 39.8948 28.3094V30.3311L41.6513 29.3162H41.6567C41.9887 29.1207 42.2672 29.0886 42.4921 29.2171C42.7171 29.3457 42.8295 29.6 42.8295 29.983V31.3298Z" fill="#F77878" stroke="#BF0B0B" stroke-width="0.267769" stroke-linecap="round" stroke-linejoin="round"/>
<path d="M36.373 36.4062L34.6111 37.421C34.2791 37.6138 34.0005 37.6459 33.7756 37.5174C33.5507 37.3888 33.4355 37.1345 33.4355 36.7516V35.4047C33.4355 35.2574 33.4516 35.1128 33.4864 34.9629L33.9711 35.2065L36.373 36.4062Z" fill="#F77878" stroke="#BF0B0B" stroke-width="0.267769" stroke-linecap="round" stroke-linejoin="round"/>
<path d="M42.8307 29.9825V31.3294C42.8307 31.7123 42.7182 32.0979 42.4933 32.4835C42.2684 32.8717 41.9899 33.1636 41.6579 33.3564L40.0888 34.2615L39.896 34.3712L36.1445 32.4969L36.3748 32.363V30.3413C36.3748 29.9611 36.4872 29.5755 36.7122 29.1872C36.7818 29.0668 36.8568 28.9543 36.9398 28.8525L37.4245 29.0935L39.896 30.3306L41.6525 29.3158H41.6579C41.9899 29.1203 42.2684 29.0882 42.4933 29.2167C42.7182 29.3452 42.8307 29.5996 42.8307 29.9825Z" fill="#F77878" stroke="#BF0B0B" stroke-width="0.267769" stroke-linecap="round" stroke-linejoin="round"/>
<path d="M39.8956 28.3092V30.3309L37.4241 29.0938L36.9395 28.8528C37.0974 28.652 37.2768 28.4886 37.475 28.3628C37.4991 28.3467 37.5232 28.3307 37.5473 28.3173L38.7228 27.6398C39.0548 27.447 39.3333 27.4149 39.5582 27.5434C39.7832 27.672 39.8956 27.9263 39.8956 28.3092Z" fill="#F77878" stroke="#BF0B0B" stroke-width="0.267769" stroke-linecap="round" stroke-linejoin="round"/>
<path d="M39.8967 34.3715V36.3931C39.8967 36.776 39.7842 37.1589 39.5593 37.5472C39.3344 37.9355 39.0559 38.2273 38.7238 38.4174L37.6581 39.0333L37.5484 39.0976C37.2163 39.2877 36.9378 39.3198 36.7129 39.1913C36.488 39.0628 36.3755 38.8084 36.3755 38.4281V36.4065L33.9736 35.2069C34.0566 35.1051 34.1343 34.9927 34.2039 34.8695C34.4289 34.4812 34.5413 34.0983 34.5413 33.7154V33.4262C34.5654 33.4102 34.5896 33.3941 34.6137 33.3807L36.1453 32.4971L39.8967 34.3715Z" fill="#F77878" stroke="#BF0B0B" stroke-width="0.267769" stroke-linecap="round" stroke-linejoin="round"/>
<path d="M46.8111 19.553C46.5782 19.4299 46.3077 19.3897 45.9998 19.4272L42.1707 19.9895L38.9548 20.4634C38.6817 20.5089 38.4086 20.6134 38.1328 20.7714C37.8596 20.9294 37.5865 21.1435 37.3134 21.414L33.9609 24.7906L31.0181 27.7574L30.2683 28.5125C29.8158 28.9731 29.449 29.5113 29.1652 30.1245C29.0233 30.4271 28.9188 30.7243 28.8492 31.0162C28.7769 31.3134 28.7421 31.6026 28.7421 31.8865V38.2513C28.7421 41.0896 29.3794 43.3898 30.6593 45.1518C30.7905 45.3419 30.9351 45.5266 31.0877 45.7034C31.6099 46.3139 32.1936 46.7932 32.839 47.1413L27.8986 44.6644C27.7219 44.5868 27.5479 44.5011 27.3792 44.4047L27.3604 44.394C26.766 44.0512 26.2224 43.596 25.7324 43.0257C24.1686 41.2021 23.3867 38.7172 23.3867 35.5736V29.2088C23.3867 28.6465 23.526 28.06 23.8098 27.4468C24.0936 26.8336 24.4605 26.2954 24.913 25.8349L31.958 18.7363C32.2311 18.4659 32.5043 18.2517 32.7774 18.0937C33.0532 17.9357 33.3263 17.8313 33.5994 17.7857L40.6444 16.7495C40.963 16.7093 41.2389 16.7548 41.4745 16.886L46.8111 19.553Z" fill="#F77878" stroke="#BF0B0B" stroke-width="0.267769" stroke-linecap="round" stroke-linejoin="round"/>
</g>
</g>
<defs>
<filter id="filter0_d_7_152" x="0.599999" y="-4.76837e-07" width="70.8" height="79.8" filterUnits="userSpaceOnUse" color-interpolation-filters="sRGB">
<feFlood flood-opacity="0" result="BackgroundImageFix"/>
<feColorMatrix in="SourceAlpha" type="matrix" values="0 0 0 0 0 0 0 0 0 0 0 0 0 0 0 0 0 0 127 0" result="hardAlpha"/>
<feOffset dy="2.4"/>
<feGaussianBlur stdDeviation="4.2"/>
<feComposite in2="hardAlpha" operator="out"/>
<feColorMatrix type="matrix" values="0 0 0 0 0 0 0 0 0 0 0 0 0 0 0 0 0 0 0.17 0"/>
<feBlend mode="normal" in2="BackgroundImageFix" result="effect1_dropShadow_7_152"/>
<feBlend mode="normal" in="SourceGraphic" in2="effect1_dropShadow_7_152" result="shape"/>
</filter>
<clipPath id="clip0_7_152">
<rect width="32.4" height="32.4" fill="white" transform="translate(19.2002 16.2002)"/>
</clipPath>
</defs>
</svg>
