<svg width="33" height="33" viewBox="0 0 33 33" fill="none" xmlns="http://www.w3.org/2000/svg">
<path d="M27.9007 3.57007C27.815 3.48438 27.7213 3.41211 27.6195 3.35588H27.6115C27.3785 3.23003 27.1081 3.18984 26.8001 3.22733L22.9711 3.78964L19.7552 4.26359C19.4821 4.30911 19.209 4.41354 18.9332 4.57152C18.66 4.72951 18.3869 4.94372 18.1138 5.21417L14.7613 8.59073L11.8185 11.5576L11.0687 12.3127C10.6162 12.7733 10.2494 13.3115 9.96558 13.9247C9.82366 14.2273 9.71923 14.5245 9.64961 14.8163C9.57732 15.1136 9.54248 15.4028 9.54248 15.6866V22.0515C9.54248 24.8898 10.1798 27.19 11.4597 28.9519C11.5909 29.142 11.7355 29.3268 11.8881 29.5035C12.4103 30.114 12.994 30.5934 13.6393 30.9415L13.7973 31.0191C15.0425 31.6484 16.5152 31.7983 18.1995 31.469C18.3173 31.4475 18.4351 31.4127 18.5529 31.3672C18.6707 31.3217 18.7966 31.2601 18.9332 31.1798C19.0724 31.1021 19.1982 31.0164 19.316 30.9254C19.4339 30.837 19.5517 30.7353 19.6695 30.6228C22.3097 28.087 24.4144 25.0023 25.9781 21.3686C27.5446 17.7377 28.3265 14.3504 28.3265 11.2068V4.83929C28.3265 4.27966 28.1846 3.8539 27.9007 3.57007ZM23.6298 15.1296C23.6298 15.5125 23.5173 15.8981 23.2924 16.2837C23.0675 16.672 22.789 16.9639 22.457 17.1566L20.8879 18.0617L20.6951 18.1715V20.1931C20.6951 20.576 20.5826 20.959 20.3577 21.3472C20.1328 21.7355 19.8542 22.0274 19.5222 22.2175L18.4565 22.8333L18.3467 22.8976C18.0147 23.0877 17.7362 23.1199 17.5113 22.9913C17.2863 22.8628 17.1739 22.6084 17.1739 22.2282V20.2065L15.412 21.2214C15.08 21.4142 14.8015 21.4463 14.5765 21.3178C14.3516 21.1892 14.2365 20.9349 14.2365 20.552V19.2051C14.2365 19.0578 14.2525 18.9132 14.2873 18.7633C14.3409 18.5276 14.4373 18.2893 14.5765 18.051C14.7854 17.6922 15.0398 17.4164 15.3397 17.2263C15.3638 17.2102 15.3879 17.1941 15.412 17.1807L16.9436 16.2971L17.1739 16.1632V14.1416C17.1739 13.7613 17.2863 13.3758 17.5113 12.9875C17.5809 12.867 17.6559 12.7545 17.7389 12.6528C17.8969 12.452 18.0763 12.2886 18.2744 12.1628C18.2985 12.1467 18.3226 12.1306 18.3467 12.1172L19.5222 11.4398C19.8542 11.247 20.1328 11.2149 20.3577 11.3434C20.5826 11.4719 20.6951 11.7263 20.6951 12.1092V14.1309L22.4516 13.116H22.457C22.789 12.9205 23.0675 12.8884 23.2924 13.0169C23.5173 13.1455 23.6298 13.3999 23.6298 13.7828V15.1296Z" fill="#F77878" stroke="#BF0B0B" stroke-width="0.267769" stroke-linecap="round" stroke-linejoin="round"/>
<path d="M17.1733 20.206L15.4114 21.2208C15.0794 21.4136 14.8008 21.4457 14.5759 21.3172C14.351 21.1887 14.2358 20.9343 14.2358 20.5514V19.2045C14.2358 19.0572 14.2519 18.9126 14.2867 18.7627L14.7714 19.0063L17.1733 20.206Z" fill="#F77878" stroke="#BF0B0B" stroke-width="0.267769" stroke-linecap="round" stroke-linejoin="round"/>
<path d="M23.63 13.7823V15.1292C23.63 15.5121 23.5176 15.8977 23.2926 16.2833C23.0677 16.6715 22.7892 16.9634 22.4572 17.1562L20.8881 18.0613L20.6953 18.1711L16.9438 16.2967L17.1741 16.1628V14.1411C17.1741 13.7609 17.2866 13.3753 17.5115 12.9871C17.5811 12.8666 17.6561 12.7541 17.7391 12.6523L18.2238 12.8933L20.6953 14.1304L22.4518 13.1156H22.4572C22.7892 12.9201 23.0677 12.888 23.2926 13.0165C23.5176 13.145 23.63 13.3994 23.63 13.7823Z" fill="#F77878" stroke="#BF0B0B" stroke-width="0.267769" stroke-linecap="round" stroke-linejoin="round"/>
<path d="M20.6959 12.109V14.1307L18.2244 12.8936L17.7397 12.6526C17.8977 12.4518 18.0771 12.2885 18.2753 12.1626C18.2994 12.1465 18.3235 12.1305 18.3476 12.1171L19.5231 11.4396C19.8551 11.2468 20.1336 11.2147 20.3585 11.3432C20.5834 11.4718 20.6959 11.7261 20.6959 12.109Z" fill="#F77878" stroke="#BF0B0B" stroke-width="0.267769" stroke-linecap="round" stroke-linejoin="round"/>
<path d="M20.6965 18.1713V20.1929C20.6965 20.5758 20.584 20.9587 20.3591 21.347C20.1342 21.7353 19.8557 22.0271 19.5237 22.2172L18.4579 22.8331L18.3482 22.8974C18.0161 23.0875 17.7376 23.1196 17.5127 22.9911C17.2878 22.8626 17.1753 22.6082 17.1753 22.2279V20.2063L14.7734 19.0067C14.8564 18.9049 14.9341 18.7925 15.0037 18.6693C15.2287 18.281 15.3411 17.8981 15.3411 17.5152V17.226C15.3652 17.21 15.3894 17.1939 15.4135 17.1805L16.9451 16.2969L20.6965 18.1713Z" fill="#F77878" stroke="#BF0B0B" stroke-width="0.267769" stroke-linecap="round" stroke-linejoin="round"/>
<path d="M27.6114 3.35283C27.3785 3.22966 27.108 3.18947 26.8 3.22695L22.971 3.7893L19.7551 4.26322C19.482 4.30874 19.2089 4.4132 18.9331 4.57118C18.6599 4.72916 18.3868 4.94335 18.1137 5.2138L14.7612 8.59039L11.8184 11.5572L11.0686 12.3123C10.6161 12.7729 10.2493 13.3111 9.96549 13.9243C9.82357 14.2269 9.71914 14.5241 9.64952 14.816C9.57722 15.1132 9.54239 15.4024 9.54239 15.6863V22.0511C9.54239 24.8894 10.1797 27.1896 11.4596 28.9516C11.5908 29.1417 11.7354 29.3264 11.888 29.5032C12.4102 30.1137 12.9939 30.593 13.6392 30.9411L8.69894 28.4642C8.52221 28.3866 8.34817 28.3009 8.17947 28.2045L8.16073 28.1938C7.56628 27.851 7.02268 27.3958 6.53267 26.8255C4.9689 25.0019 4.18701 22.517 4.18701 19.3734V13.0086C4.18701 12.4463 4.32627 11.8598 4.61011 11.2466C4.89394 10.6334 5.26075 10.0952 5.71328 9.63466L12.7583 2.53612C13.0314 2.26567 13.3046 2.05146 13.5777 1.89348C13.8535 1.7355 14.1266 1.63106 14.3997 1.58554L21.4447 0.549276C21.7633 0.509111 22.0391 0.554635 22.2748 0.685841L27.6114 3.35283Z" fill="#F77878" stroke="#BF0B0B" stroke-width="0.267769" stroke-linecap="round" stroke-linejoin="round"/>
</svg>
