<svg width="81" height="79" viewBox="0 0 81 79" fill="none" xmlns="http://www.w3.org/2000/svg">
<g filter="url(#filter0_d_128_609)">
<rect x="8.48926" y="7.44482" width="64.0213" height="61.3257" rx="12.1304" fill="white"/>
<path d="M29.8874 52.978C28.968 53.3825 28.5083 53.5848 28.2262 53.4959C27.9817 53.4189 27.79 53.2275 27.7127 52.9831C27.6236 52.7011 27.8253 52.2411 28.2287 51.3213L39.6783 25.2162C40.0425 24.3858 40.2246 23.9706 40.4792 23.8435C40.7003 23.7332 40.9604 23.7332 41.1815 23.8435C41.4361 23.9706 41.6182 24.3858 41.9824 25.2162L53.432 51.3213C53.8355 52.2411 54.0372 52.7011 53.948 52.9831C53.8707 53.2275 53.6791 53.4189 53.4345 53.4959C53.1524 53.5848 52.6927 53.3825 51.7733 52.978L41.337 48.386C41.1504 48.3039 41.0571 48.2628 40.9601 48.2466C40.8742 48.2322 40.7865 48.2322 40.7006 48.2466C40.6037 48.2628 40.5104 48.3039 40.3237 48.386L29.8874 52.978Z" stroke="#046DFF" stroke-width="3.14491" stroke-linecap="round" stroke-linejoin="round"/>
</g>
<defs>
<filter id="filter0_d_128_609" x="0.469746" y="0.773129" width="80.0605" height="77.3647" filterUnits="userSpaceOnUse" color-interpolation-filters="sRGB">
<feFlood flood-opacity="0" result="BackgroundImageFix"/>
<feColorMatrix in="SourceAlpha" type="matrix" values="0 0 0 0 0 0 0 0 0 0 0 0 0 0 0 0 0 0 127 0" result="hardAlpha"/>
<feOffset dy="1.34782"/>
<feGaussianBlur stdDeviation="4.00976"/>
<feComposite in2="hardAlpha" operator="out"/>
<feColorMatrix type="matrix" values="0 0 0 0 0 0 0 0 0 0 0 0 0 0 0 0 0 0 0.17 0"/>
<feBlend mode="normal" in2="BackgroundImageFix" result="effect1_dropShadow_128_609"/>
<feBlend mode="normal" in="SourceGraphic" in2="effect1_dropShadow_128_609" result="shape"/>
</filter>
</defs>
</svg>
